# xmcd
#
# Track frame offsets: 
#        150
#        17390
#        33880
#        49350
#        58000
#        69216
#        83923
#        101727
#        121024
#        137956
#        150870
#        166463
#        181669
#        201287
#        216318
#        239991
#        257794
#        273689
#        284385
#        295968
#        318638
#        332046
#
# Disc length: 4785 seconds
#
# Revision: 2
# Processed by: cddbd v1.5.2PL0 Copyright (c) Steve Scherf et al.
# Submitted via: ExactAudioCopy v0.95a5
#
DISCID=4d12af16
DTITLE=Various Artist - Zydeco Kings  CD-1 
DYEAR=2005
DGENRE=Zydeco
TTITLE0='Tit Galop Pour) La Pointe Aux Pins - GENO DeLAFOCE
TTITLE1=Au Contra, Mon Frere - C.J.CHENIER
TTITLE2=Something In My Gumbo - PORCHDOGS CAJUN ZYDECO BAND
TTITLE3=Tequila - L.C.DONATTO
TTITLE4=All Night Long - CLIFTON CHENIER
TTITLE5=Tule Ton Son Ton - CHUBBY CARRIER
TTITLE6=Allez Voir Ma 'tit Fille - GENO DeLAFOCE
TTITLE7=Don't You Just Know - C.J.CHENIER
TTITLE8=When I Was Alone - RADIO KINGS
TTITLE9=Bayou Pon Pon - ZYDECOLOGY
TTITLE10=Wherever You Go I'll Go - CLIFTON CHENIER
TTITLE11=Gotta Find My Woman - GENO DeLAFOSE
TTITLE12=Lion's Den - C.J.CHENIER
TTITLE13=Zydeco Shortnin' - ZYDECO BON!
TTITLE14=Black Mare - BILL SIMS
TTITLE15=Port Arthur Blues - GENO DeLAFOCE
TTITLE16=Zydeco Extravaganza - CHUBBY CARRIER
TTITLE17=The Twist (Zydeco Twist) - L.C.DONATTO
TTITLE18=Teddy Bear - C.J.CHENIER
TTITLE19=Zydeco Party - PORCHDOGS CAJUN ZYDECO BAND
TTITLE20=Done Got Over - CLIFTON CHENIER
TTITLE21=Black Paris Blues - MIGHTY MO RODGERS
EXTD=
EXTT0=
EXTT1=
EXTT2=
EXTT3=
EXTT4=
EXTT5=
EXTT6=
EXTT7=
EXTT8=
EXTT9=
EXTT10=
EXTT11=
EXTT12=
EXTT13=
EXTT14=
EXTT15=
EXTT16=
EXTT17=
EXTT18=
EXTT19=
EXTT20=
EXTT21=
PLAYORDER=
